<svg xmlns="http://www.w3.org/2000/svg" viewBox="0 0 166.77 166.77"><g id="Capa_2" data-name="Capa 2"><g id="Слой_1" data-name="Слой 1"><path d="M0,83.39a83.39,83.39,0,1,1,83.39,83.38A83.38,83.38,0,0,1,0,83.39Z" fill="#1a1a1a"/><path d="M6.26,83.39a77.13,77.13,0,1,1,77.13,77.13A77.13,77.13,0,0,1,6.26,83.39Z" fill="#fff"/><path d="M11,83.39a72.44,72.44,0,1,1,72.44,72.43A72.44,72.44,0,0,1,11,83.39Z" fill="#1a1a1a"/><polygon points="56.41 100.95 86.83 118.51 86.83 96.03 95.35 100.95 125.76 118.51 125.76 83.39 125.76 48.26 95.35 65.83 86.83 70.74 86.83 48.26 56.41 65.83 26 83.39 56.41 100.95" fill="#fff"/></g></g></svg>