<svg xmlns="http://www.w3.org/2000/svg" viewBox="0 0 166.78 166.77"><g id="Capa_2" data-name="Capa 2"><g id="Слой_1" data-name="Слой 1"><path d="M0,83.39a83.39,83.39,0,1,1,83.39,83.38A83.38,83.38,0,0,1,0,83.39Z" fill="#1a1a1a"/><path d="M6.25,83.39a77.14,77.14,0,1,1,77.14,77.13A77.14,77.14,0,0,1,6.25,83.39Z" fill="#fff"/><path d="M11,83.39a72.44,72.44,0,1,1,72.44,72.44A72.44,72.44,0,0,1,11,83.39Z" fill="#1a1a1a"/><polygon points="126.65 83.39 126.65 118.51 96.23 100.95 65.81 83.39 96.23 65.83 126.65 48.27 126.65 83.39" fill="#fff"/><rect x="40.13" y="48.26" width="21.63" height="70.24" fill="#fff"/></g></g></svg>