<svg xmlns="http://www.w3.org/2000/svg" viewBox="0 0 166.77 166.77"><g id="Capa_2" data-name="Capa 2"><g id="Слой_1" data-name="Слой 1"><path d="M0,83.39a83.39,83.39,0,1,1,83.39,83.38A83.38,83.38,0,0,1,0,83.39Z" fill="#1a1a1a"/><path d="M6.25,83.39a77.14,77.14,0,1,1,77.14,77.13A77.14,77.14,0,0,1,6.25,83.39Z" fill="#fff"/><path d="M11,83.39a72.44,72.44,0,1,1,72.44,72.44A72.44,72.44,0,0,1,11,83.39Z" fill="#1a1a1a"/><polygon points="40.13 83.39 40.13 48.27 70.54 65.83 100.96 83.39 70.54 100.95 40.13 118.51 40.13 83.39" fill="#fff"/><rect x="105.02" y="48.26" width="21.63" height="70.24" fill="#fff"/></g></g></svg>