<svg xmlns="http://www.w3.org/2000/svg" viewBox="0 0 166.78 166.77"><g id="Capa_2" data-name="Capa 2"><g id="Слой_1" data-name="Слой 1"><path d="M0,83.38a83.39,83.39,0,1,1,83.39,83.39A83.38,83.38,0,0,1,0,83.38Z" fill="#1a1a1a"/><path d="M6.26,83.38a77.13,77.13,0,1,1,77.13,77.14A77.12,77.12,0,0,1,6.26,83.38Z" fill="#fff"/><path d="M11,83.38a72.44,72.44,0,1,1,72.44,72.44A72.43,72.43,0,0,1,11,83.38Z" fill="#1a1a1a"/><polygon points="110.36 65.83 79.94 48.26 79.94 70.74 71.43 65.83 41.01 48.26 41.01 83.39 41.01 118.51 71.43 100.95 79.94 96.03 79.94 118.51 110.36 100.95 140.78 83.39 110.36 65.83" fill="#fff"/></g></g></svg>